<svg xmlns="http://www.w3.org/2000/svg" version="1.1" xmlns:xlink="http://www.w3.org/1999/xlink" xmlns:svgjs="http://svgjs.dev/svgjs" viewBox="0 0 1422 800"><g stroke-width="4" stroke="hsl(335, 77%, 50%)" fill="none" stroke-linecap="round"><line x1="0" y1="0" x2="40" y2="40" opacity="0.05"></line><line x1="80" y1="0" x2="40" y2="40" opacity="0.05"></line><line x1="120" y1="0" x2="80" y2="40" opacity="0.05"></line><line x1="160" y1="0" x2="120" y2="40" opacity="0.05"></line><line x1="200" y1="0" x2="160" y2="40" opacity="0.05"></line><line x1="240" y1="0" x2="200" y2="40" opacity="0.05"></line><line x1="280" y1="0" x2="240" y2="40" opacity="0.05"></line><line x1="320" y1="0" x2="280" y2="40" opacity="0.05"></line><line x1="320" y1="0" x2="360" y2="40" opacity="0.05"></line><line x1="360" y1="0" x2="400" y2="40" opacity="0.05"></line><line x1="440" y1="0" x2="400" y2="40" opacity="0.05"></line><line x1="440" y1="0" x2="480" y2="40" opacity="0.05"></line><line x1="520" y1="0" x2="480" y2="40" opacity="0.05"></line><line x1="520" y1="0" x2="560" y2="40" opacity="0.05"></line><line x1="600" y1="0" x2="560" y2="40" opacity="0.05"></line><line x1="640" y1="0" x2="600" y2="40" opacity="0.05"></line><line x1="680" y1="0" x2="640" y2="40" opacity="0.05"></line><line x1="680" y1="0" x2="720" y2="40" opacity="0.05"></line><line x1="720" y1="0" x2="760" y2="40" opacity="0.05"></line><line x1="760" y1="0" x2="800" y2="40" opacity="0.05"></line><line x1="800" y1="0" x2="840" y2="40" opacity="0.05"></line><line x1="840" y1="0" x2="880" y2="40" opacity="0.05"></line><line x1="920" y1="0" x2="880" y2="40" opacity="0.05"></line><line x1="920" y1="0" x2="960" y2="40" opacity="0.05"></line><line x1="1000" y1="0" x2="960" y2="40" opacity="0.05"></line><line x1="1000" y1="0" x2="1040" y2="40" opacity="0.05"></line><line x1="1040" y1="0" x2="1080" y2="40" opacity="0.05"></line><line x1="1080" y1="0" x2="1120" y2="40" opacity="0.05"></line><line x1="1160" y1="0" x2="1120" y2="40" opacity="0.05"></line><line x1="1160" y1="0" x2="1200" y2="40" opacity="0.05"></line><line x1="1240" y1="0" x2="1200" y2="40" opacity="0.05"></line><line x1="1240" y1="0" x2="1280" y2="40" opacity="0.05"></line><line x1="1320" y1="0" x2="1280" y2="40" opacity="0.05"></line><line x1="1360" y1="0" x2="1320" y2="40" opacity="0.05"></line><line x1="1360" y1="0" x2="1400" y2="40" opacity="0.05"></line><line x1="1400" y1="0" x2="1440" y2="40" opacity="0.05"></line><line x1="40" y1="40" x2="0" y2="80" opacity="0.10"></line><line x1="40" y1="40" x2="80" y2="80" opacity="0.10"></line><line x1="120" y1="40" x2="80" y2="80" opacity="0.10"></line><line x1="160" y1="40" x2="120" y2="80" opacity="0.10"></line><line x1="200" y1="40" x2="160" y2="80" opacity="0.10"></line><line x1="240" y1="40" x2="200" y2="80" opacity="0.10"></line><line x1="280" y1="40" x2="240" y2="80" opacity="0.10"></line><line x1="280" y1="40" x2="320" y2="80" opacity="0.10"></line><line x1="360" y1="40" x2="320" y2="80" opacity="0.10"></line><line x1="360" y1="40" x2="400" y2="80" opacity="0.10"></line><line x1="440" y1="40" x2="400" y2="80" opacity="0.10"></line><line x1="440" y1="40" x2="480" y2="80" opacity="0.10"></line><line x1="520" y1="40" x2="480" y2="80" opacity="0.10"></line><line x1="560" y1="40" x2="520" y2="80" opacity="0.10"></line><line x1="560" y1="40" x2="600" y2="80" opacity="0.10"></line><line x1="600" y1="40" x2="640" y2="80" opacity="0.10"></line><line x1="680" y1="40" x2="640" y2="80" opacity="0.10"></line><line x1="680" y1="40" x2="720" y2="80" opacity="0.10"></line><line x1="760" y1="40" x2="720" y2="80" opacity="0.10"></line><line x1="760" y1="40" x2="800" y2="80" opacity="0.10"></line><line x1="800" y1="40" x2="840" y2="80" opacity="0.10"></line><line x1="840" y1="40" x2="880" y2="80" opacity="0.10"></line><line x1="880" y1="40" x2="920" y2="80" opacity="0.10"></line><line x1="920" y1="40" x2="960" y2="80" opacity="0.10"></line><line x1="1000" y1="40" x2="960" y2="80" opacity="0.10"></line><line x1="1040" y1="40" x2="1000" y2="80" opacity="0.10"></line><line x1="1040" y1="40" x2="1080" y2="80" opacity="0.10"></line><line x1="1120" y1="40" x2="1080" y2="80" opacity="0.10"></line><line x1="1160" y1="40" x2="1120" y2="80" opacity="0.10"></line><line x1="1160" y1="40" x2="1200" y2="80" opacity="0.10"></line><line x1="1200" y1="40" x2="1240" y2="80" opacity="0.10"></line><line x1="1280" y1="40" x2="1240" y2="80" opacity="0.10"></line><line x1="1320" y1="40" x2="1280" y2="80" opacity="0.10"></line><line x1="1320" y1="40" x2="1360" y2="80" opacity="0.10"></line><line x1="1400" y1="40" x2="1360" y2="80" opacity="0.10"></line><line x1="1400" y1="40" x2="1440" y2="80" opacity="0.10"></line><line x1="0" y1="80" x2="40" y2="120" opacity="0.15"></line><line x1="80" y1="80" x2="40" y2="120" opacity="0.15"></line><line x1="120" y1="80" x2="80" y2="120" opacity="0.15"></line><line x1="160" y1="80" x2="120" y2="120" opacity="0.15"></line><line x1="160" y1="80" x2="200" y2="120" opacity="0.15"></line><line x1="200" y1="80" x2="240" y2="120" opacity="0.15"></line><line x1="280" y1="80" x2="240" y2="120" opacity="0.15"></line><line x1="280" y1="80" x2="320" y2="120" opacity="0.15"></line><line x1="320" y1="80" x2="360" y2="120" opacity="0.15"></line><line x1="400" y1="80" x2="360" y2="120" opacity="0.15"></line><line x1="400" y1="80" x2="440" y2="120" opacity="0.15"></line><line x1="440" y1="80" x2="480" y2="120" opacity="0.15"></line><line x1="520" y1="80" x2="480" y2="120" opacity="0.15"></line><line x1="520" y1="80" x2="560" y2="120" opacity="0.15"></line><line x1="600" y1="80" x2="560" y2="120" opacity="0.15"></line><line x1="600" y1="80" x2="640" y2="120" opacity="0.15"></line><line x1="640" y1="80" x2="680" y2="120" opacity="0.15"></line><line x1="720" y1="80" x2="680" y2="120" opacity="0.15"></line><line x1="720" y1="80" x2="760" y2="120" opacity="0.15"></line><line x1="760" y1="80" x2="800" y2="120" opacity="0.15"></line><line x1="840" y1="80" x2="800" y2="120" opacity="0.15"></line><line x1="840" y1="80" x2="880" y2="120" opacity="0.15"></line><line x1="880" y1="80" x2="920" y2="120" opacity="0.15"></line><line x1="920" y1="80" x2="960" y2="120" opacity="0.15"></line><line x1="960" y1="80" x2="1000" y2="120" opacity="0.15"></line><line x1="1040" y1="80" x2="1000" y2="120" opacity="0.15"></line><line x1="1040" y1="80" x2="1080" y2="120" opacity="0.15"></line><line x1="1120" y1="80" x2="1080" y2="120" opacity="0.15"></line><line x1="1120" y1="80" x2="1160" y2="120" opacity="0.15"></line><line x1="1200" y1="80" x2="1160" y2="120" opacity="0.15"></line><line x1="1200" y1="80" x2="1240" y2="120" opacity="0.15"></line><line x1="1240" y1="80" x2="1280" y2="120" opacity="0.15"></line><line x1="1280" y1="80" x2="1320" y2="120" opacity="0.15"></line><line x1="1320" y1="80" x2="1360" y2="120" opacity="0.15"></line><line x1="1400" y1="80" x2="1360" y2="120" opacity="0.15"></line><line x1="1400" y1="80" x2="1440" y2="120" opacity="0.15"></line><line x1="0" y1="120" x2="40" y2="160" opacity="0.19"></line><line x1="40" y1="120" x2="80" y2="160" opacity="0.19"></line><line x1="80" y1="120" x2="120" y2="160" opacity="0.19"></line><line x1="160" y1="120" x2="120" y2="160" opacity="0.19"></line><line x1="160" y1="120" x2="200" y2="160" opacity="0.19"></line><line x1="200" y1="120" x2="240" y2="160" opacity="0.19"></line><line x1="240" y1="120" x2="280" y2="160" opacity="0.19"></line><line x1="320" y1="120" x2="280" y2="160" opacity="0.19"></line><line x1="320" y1="120" x2="360" y2="160" opacity="0.19"></line><line x1="400" y1="120" x2="360" y2="160" opacity="0.19"></line><line x1="440" y1="120" x2="400" y2="160" opacity="0.19"></line><line x1="440" y1="120" x2="480" y2="160" opacity="0.19"></line><line x1="480" y1="120" x2="520" y2="160" opacity="0.19"></line><line x1="560" y1="120" x2="520" y2="160" opacity="0.19"></line><line x1="560" y1="120" x2="600" y2="160" opacity="0.19"></line><line x1="640" y1="120" x2="600" y2="160" opacity="0.19"></line><line x1="640" y1="120" x2="680" y2="160" opacity="0.19"></line><line x1="680" y1="120" x2="720" y2="160" opacity="0.19"></line><line x1="760" y1="120" x2="720" y2="160" opacity="0.19"></line><line x1="800" y1="120" x2="760" y2="160" opacity="0.19"></line><line x1="840" y1="120" x2="800" y2="160" opacity="0.19"></line><line x1="880" y1="120" x2="840" y2="160" opacity="0.19"></line><line x1="920" y1="120" x2="880" y2="160" opacity="0.19"></line><line x1="960" y1="120" x2="920" y2="160" opacity="0.19"></line><line x1="960" y1="120" x2="1000" y2="160" opacity="0.19"></line><line x1="1000" y1="120" x2="1040" y2="160" opacity="0.19"></line><line x1="1040" y1="120" x2="1080" y2="160" opacity="0.19"></line><line x1="1080" y1="120" x2="1120" y2="160" opacity="0.19"></line><line x1="1160" y1="120" x2="1120" y2="160" opacity="0.19"></line><line x1="1200" y1="120" x2="1160" y2="160" opacity="0.19"></line><line x1="1200" y1="120" x2="1240" y2="160" opacity="0.19"></line><line x1="1280" y1="120" x2="1240" y2="160" opacity="0.19"></line><line x1="1320" y1="120" x2="1280" y2="160" opacity="0.19"></line><line x1="1360" y1="120" x2="1320" y2="160" opacity="0.19"></line><line x1="1400" y1="120" x2="1360" y2="160" opacity="0.19"></line><line x1="1440" y1="120" x2="1400" y2="160" opacity="0.19"></line><line x1="0" y1="160" x2="40" y2="200" opacity="0.24"></line><line x1="80" y1="160" x2="40" y2="200" opacity="0.24"></line><line x1="80" y1="160" x2="120" y2="200" opacity="0.24"></line><line x1="160" y1="160" x2="120" y2="200" opacity="0.24"></line><line x1="200" y1="160" x2="160" y2="200" opacity="0.24"></line><line x1="200" y1="160" x2="240" y2="200" opacity="0.24"></line><line x1="240" y1="160" x2="280" y2="200" opacity="0.24"></line><line x1="280" y1="160" x2="320" y2="200" opacity="0.24"></line><line x1="360" y1="160" x2="320" y2="200" opacity="0.24"></line><line x1="400" y1="160" x2="360" y2="200" opacity="0.24"></line><line x1="400" y1="160" x2="440" y2="200" opacity="0.24"></line><line x1="440" y1="160" x2="480" y2="200" opacity="0.24"></line><line x1="520" y1="160" x2="480" y2="200" opacity="0.24"></line><line x1="520" y1="160" x2="560" y2="200" opacity="0.24"></line><line x1="600" y1="160" x2="560" y2="200" opacity="0.24"></line><line x1="600" y1="160" x2="640" y2="200" opacity="0.24"></line><line x1="640" y1="160" x2="680" y2="200" opacity="0.24"></line><line x1="720" y1="160" x2="680" y2="200" opacity="0.24"></line><line x1="720" y1="160" x2="760" y2="200" opacity="0.24"></line><line x1="800" y1="160" x2="760" y2="200" opacity="0.24"></line><line x1="840" y1="160" x2="800" y2="200" opacity="0.24"></line><line x1="880" y1="160" x2="840" y2="200" opacity="0.24"></line><line x1="880" y1="160" x2="920" y2="200" opacity="0.24"></line><line x1="960" y1="160" x2="920" y2="200" opacity="0.24"></line><line x1="1000" y1="160" x2="960" y2="200" opacity="0.24"></line><line x1="1040" y1="160" x2="1000" y2="200" opacity="0.24"></line><line x1="1040" y1="160" x2="1080" y2="200" opacity="0.24"></line><line x1="1080" y1="160" x2="1120" y2="200" opacity="0.24"></line><line x1="1120" y1="160" x2="1160" y2="200" opacity="0.24"></line><line x1="1200" y1="160" x2="1160" y2="200" opacity="0.24"></line><line x1="1240" y1="160" x2="1200" y2="200" opacity="0.24"></line><line x1="1240" y1="160" x2="1280" y2="200" opacity="0.24"></line><line x1="1280" y1="160" x2="1320" y2="200" opacity="0.24"></line><line x1="1360" y1="160" x2="1320" y2="200" opacity="0.24"></line><line x1="1400" y1="160" x2="1360" y2="200" opacity="0.24"></line><line x1="1440" y1="160" x2="1400" y2="200" opacity="0.24"></line><line x1="0" y1="200" x2="40" y2="240" opacity="0.29"></line><line x1="40" y1="200" x2="80" y2="240" opacity="0.29"></line><line x1="120" y1="200" x2="80" y2="240" opacity="0.29"></line><line x1="160" y1="200" x2="120" y2="240" opacity="0.29"></line><line x1="160" y1="200" x2="200" y2="240" opacity="0.29"></line><line x1="200" y1="200" x2="240" y2="240" opacity="0.29"></line><line x1="280" y1="200" x2="240" y2="240" opacity="0.29"></line><line x1="280" y1="200" x2="320" y2="240" opacity="0.29"></line><line x1="320" y1="200" x2="360" y2="240" opacity="0.29"></line><line x1="360" y1="200" x2="400" y2="240" opacity="0.29"></line><line x1="400" y1="200" x2="440" y2="240" opacity="0.29"></line><line x1="440" y1="200" x2="480" y2="240" opacity="0.29"></line><line x1="480" y1="200" x2="520" y2="240" opacity="0.29"></line><line x1="520" y1="200" x2="560" y2="240" opacity="0.29"></line><line x1="560" y1="200" x2="600" y2="240" opacity="0.29"></line><line x1="640" y1="200" x2="600" y2="240" opacity="0.29"></line><line x1="680" y1="200" x2="640" y2="240" opacity="0.29"></line><line x1="680" y1="200" x2="720" y2="240" opacity="0.29"></line><line x1="720" y1="200" x2="760" y2="240" opacity="0.29"></line><line x1="760" y1="200" x2="800" y2="240" opacity="0.29"></line><line x1="840" y1="200" x2="800" y2="240" opacity="0.29"></line><line x1="840" y1="200" x2="880" y2="240" opacity="0.29"></line><line x1="880" y1="200" x2="920" y2="240" opacity="0.29"></line><line x1="920" y1="200" x2="960" y2="240" opacity="0.29"></line><line x1="1000" y1="200" x2="960" y2="240" opacity="0.29"></line><line x1="1000" y1="200" x2="1040" y2="240" opacity="0.29"></line><line x1="1040" y1="200" x2="1080" y2="240" opacity="0.29"></line><line x1="1080" y1="200" x2="1120" y2="240" opacity="0.29"></line><line x1="1160" y1="200" x2="1120" y2="240" opacity="0.29"></line><line x1="1200" y1="200" x2="1160" y2="240" opacity="0.29"></line><line x1="1240" y1="200" x2="1200" y2="240" opacity="0.29"></line><line x1="1280" y1="200" x2="1240" y2="240" opacity="0.29"></line><line x1="1320" y1="200" x2="1280" y2="240" opacity="0.29"></line><line x1="1360" y1="200" x2="1320" y2="240" opacity="0.29"></line><line x1="1400" y1="200" x2="1360" y2="240" opacity="0.29"></line><line x1="1440" y1="200" x2="1400" y2="240" opacity="0.29"></line><line x1="0" y1="240" x2="40" y2="280" opacity="0.33"></line><line x1="40" y1="240" x2="80" y2="280" opacity="0.33"></line><line x1="80" y1="240" x2="120" y2="280" opacity="0.33"></line><line x1="120" y1="240" x2="160" y2="280" opacity="0.33"></line><line x1="200" y1="240" x2="160" y2="280" opacity="0.33"></line><line x1="200" y1="240" x2="240" y2="280" opacity="0.33"></line><line x1="280" y1="240" x2="240" y2="280" opacity="0.33"></line><line x1="280" y1="240" x2="320" y2="280" opacity="0.33"></line><line x1="360" y1="240" x2="320" y2="280" opacity="0.33"></line><line x1="360" y1="240" x2="400" y2="280" opacity="0.33"></line><line x1="400" y1="240" x2="440" y2="280" opacity="0.33"></line><line x1="440" y1="240" x2="480" y2="280" opacity="0.33"></line><line x1="520" y1="240" x2="480" y2="280" opacity="0.33"></line><line x1="560" y1="240" x2="520" y2="280" opacity="0.33"></line><line x1="560" y1="240" x2="600" y2="280" opacity="0.33"></line><line x1="640" y1="240" x2="600" y2="280" opacity="0.33"></line><line x1="680" y1="240" x2="640" y2="280" opacity="0.33"></line><line x1="680" y1="240" x2="720" y2="280" opacity="0.33"></line><line x1="720" y1="240" x2="760" y2="280" opacity="0.33"></line><line x1="760" y1="240" x2="800" y2="280" opacity="0.33"></line><line x1="800" y1="240" x2="840" y2="280" opacity="0.33"></line><line x1="840" y1="240" x2="880" y2="280" opacity="0.33"></line><line x1="920" y1="240" x2="880" y2="280" opacity="0.33"></line><line x1="920" y1="240" x2="960" y2="280" opacity="0.33"></line><line x1="1000" y1="240" x2="960" y2="280" opacity="0.33"></line><line x1="1000" y1="240" x2="1040" y2="280" opacity="0.33"></line><line x1="1080" y1="240" x2="1040" y2="280" opacity="0.33"></line><line x1="1080" y1="240" x2="1120" y2="280" opacity="0.33"></line><line x1="1160" y1="240" x2="1120" y2="280" opacity="0.33"></line><line x1="1200" y1="240" x2="1160" y2="280" opacity="0.33"></line><line x1="1200" y1="240" x2="1240" y2="280" opacity="0.33"></line><line x1="1280" y1="240" x2="1240" y2="280" opacity="0.33"></line><line x1="1280" y1="240" x2="1320" y2="280" opacity="0.33"></line><line x1="1320" y1="240" x2="1360" y2="280" opacity="0.33"></line><line x1="1360" y1="240" x2="1400" y2="280" opacity="0.33"></line><line x1="1440" y1="240" x2="1400" y2="280" opacity="0.33"></line><line x1="0" y1="280" x2="40" y2="320" opacity="0.38"></line><line x1="40" y1="280" x2="80" y2="320" opacity="0.38"></line><line x1="80" y1="280" x2="120" y2="320" opacity="0.38"></line><line x1="120" y1="280" x2="160" y2="320" opacity="0.38"></line><line x1="160" y1="280" x2="200" y2="320" opacity="0.38"></line><line x1="200" y1="280" x2="240" y2="320" opacity="0.38"></line><line x1="240" y1="280" x2="280" y2="320" opacity="0.38"></line><line x1="280" y1="280" x2="320" y2="320" opacity="0.38"></line><line x1="320" y1="280" x2="360" y2="320" opacity="0.38"></line><line x1="400" y1="280" x2="360" y2="320" opacity="0.38"></line><line x1="440" y1="280" x2="400" y2="320" opacity="0.38"></line><line x1="480" y1="280" x2="440" y2="320" opacity="0.38"></line><line x1="480" y1="280" x2="520" y2="320" opacity="0.38"></line><line x1="560" y1="280" x2="520" y2="320" opacity="0.38"></line><line x1="560" y1="280" x2="600" y2="320" opacity="0.38"></line><line x1="640" y1="280" x2="600" y2="320" opacity="0.38"></line><line x1="640" y1="280" x2="680" y2="320" opacity="0.38"></line><line x1="680" y1="280" x2="720" y2="320" opacity="0.38"></line><line x1="760" y1="280" x2="720" y2="320" opacity="0.38"></line><line x1="760" y1="280" x2="800" y2="320" opacity="0.38"></line><line x1="800" y1="280" x2="840" y2="320" opacity="0.38"></line><line x1="880" y1="280" x2="840" y2="320" opacity="0.38"></line><line x1="880" y1="280" x2="920" y2="320" opacity="0.38"></line><line x1="960" y1="280" x2="920" y2="320" opacity="0.38"></line><line x1="1000" y1="280" x2="960" y2="320" opacity="0.38"></line><line x1="1000" y1="280" x2="1040" y2="320" opacity="0.38"></line><line x1="1040" y1="280" x2="1080" y2="320" opacity="0.38"></line><line x1="1120" y1="280" x2="1080" y2="320" opacity="0.38"></line><line x1="1160" y1="280" x2="1120" y2="320" opacity="0.38"></line><line x1="1200" y1="280" x2="1160" y2="320" opacity="0.38"></line><line x1="1240" y1="280" x2="1200" y2="320" opacity="0.38"></line><line x1="1240" y1="280" x2="1280" y2="320" opacity="0.38"></line><line x1="1280" y1="280" x2="1320" y2="320" opacity="0.38"></line><line x1="1360" y1="280" x2="1320" y2="320" opacity="0.38"></line><line x1="1400" y1="280" x2="1360" y2="320" opacity="0.38"></line><line x1="1400" y1="280" x2="1440" y2="320" opacity="0.38"></line><line x1="40" y1="320" x2="0" y2="360" opacity="0.43"></line><line x1="40" y1="320" x2="80" y2="360" opacity="0.43"></line><line x1="80" y1="320" x2="120" y2="360" opacity="0.43"></line><line x1="160" y1="320" x2="120" y2="360" opacity="0.43"></line><line x1="160" y1="320" x2="200" y2="360" opacity="0.43"></line><line x1="200" y1="320" x2="240" y2="360" opacity="0.43"></line><line x1="280" y1="320" x2="240" y2="360" opacity="0.43"></line><line x1="280" y1="320" x2="320" y2="360" opacity="0.43"></line><line x1="320" y1="320" x2="360" y2="360" opacity="0.43"></line><line x1="400" y1="320" x2="360" y2="360" opacity="0.43"></line><line x1="400" y1="320" x2="440" y2="360" opacity="0.43"></line><line x1="480" y1="320" x2="440" y2="360" opacity="0.43"></line><line x1="480" y1="320" x2="520" y2="360" opacity="0.43"></line><line x1="520" y1="320" x2="560" y2="360" opacity="0.43"></line><line x1="560" y1="320" x2="600" y2="360" opacity="0.43"></line><line x1="640" y1="320" x2="600" y2="360" opacity="0.43"></line><line x1="640" y1="320" x2="680" y2="360" opacity="0.43"></line><line x1="680" y1="320" x2="720" y2="360" opacity="0.43"></line><line x1="720" y1="320" x2="760" y2="360" opacity="0.43"></line><line x1="800" y1="320" x2="760" y2="360" opacity="0.43"></line><line x1="800" y1="320" x2="840" y2="360" opacity="0.43"></line><line x1="840" y1="320" x2="880" y2="360" opacity="0.43"></line><line x1="920" y1="320" x2="880" y2="360" opacity="0.43"></line><line x1="920" y1="320" x2="960" y2="360" opacity="0.43"></line><line x1="1000" y1="320" x2="960" y2="360" opacity="0.43"></line><line x1="1040" y1="320" x2="1000" y2="360" opacity="0.43"></line><line x1="1040" y1="320" x2="1080" y2="360" opacity="0.43"></line><line x1="1120" y1="320" x2="1080" y2="360" opacity="0.43"></line><line x1="1120" y1="320" x2="1160" y2="360" opacity="0.43"></line><line x1="1200" y1="320" x2="1160" y2="360" opacity="0.43"></line><line x1="1240" y1="320" x2="1200" y2="360" opacity="0.43"></line><line x1="1240" y1="320" x2="1280" y2="360" opacity="0.43"></line><line x1="1280" y1="320" x2="1320" y2="360" opacity="0.43"></line><line x1="1320" y1="320" x2="1360" y2="360" opacity="0.43"></line><line x1="1360" y1="320" x2="1400" y2="360" opacity="0.43"></line><line x1="1440" y1="320" x2="1400" y2="360" opacity="0.43"></line><line x1="40" y1="360" x2="0" y2="400" opacity="0.48"></line><line x1="80" y1="360" x2="40" y2="400" opacity="0.48"></line><line x1="120" y1="360" x2="80" y2="400" opacity="0.48"></line><line x1="160" y1="360" x2="120" y2="400" opacity="0.48"></line><line x1="160" y1="360" x2="200" y2="400" opacity="0.48"></line><line x1="240" y1="360" x2="200" y2="400" opacity="0.48"></line><line x1="240" y1="360" x2="280" y2="400" opacity="0.48"></line><line x1="320" y1="360" x2="280" y2="400" opacity="0.48"></line><line x1="360" y1="360" x2="320" y2="400" opacity="0.48"></line><line x1="400" y1="360" x2="360" y2="400" opacity="0.48"></line><line x1="400" y1="360" x2="440" y2="400" opacity="0.48"></line><line x1="440" y1="360" x2="480" y2="400" opacity="0.48"></line><line x1="480" y1="360" x2="520" y2="400" opacity="0.48"></line><line x1="520" y1="360" x2="560" y2="400" opacity="0.48"></line><line x1="600" y1="360" x2="560" y2="400" opacity="0.48"></line><line x1="600" y1="360" x2="640" y2="400" opacity="0.48"></line><line x1="640" y1="360" x2="680" y2="400" opacity="0.48"></line><line x1="680" y1="360" x2="720" y2="400" opacity="0.48"></line><line x1="720" y1="360" x2="760" y2="400" opacity="0.48"></line><line x1="800" y1="360" x2="760" y2="400" opacity="0.48"></line><line x1="800" y1="360" x2="840" y2="400" opacity="0.48"></line><line x1="840" y1="360" x2="880" y2="400" opacity="0.48"></line><line x1="880" y1="360" x2="920" y2="400" opacity="0.48"></line><line x1="920" y1="360" x2="960" y2="400" opacity="0.48"></line><line x1="1000" y1="360" x2="960" y2="400" opacity="0.48"></line><line x1="1000" y1="360" x2="1040" y2="400" opacity="0.48"></line><line x1="1040" y1="360" x2="1080" y2="400" opacity="0.48"></line><line x1="1080" y1="360" x2="1120" y2="400" opacity="0.48"></line><line x1="1120" y1="360" x2="1160" y2="400" opacity="0.48"></line><line x1="1160" y1="360" x2="1200" y2="400" opacity="0.48"></line><line x1="1200" y1="360" x2="1240" y2="400" opacity="0.48"></line><line x1="1240" y1="360" x2="1280" y2="400" opacity="0.48"></line><line x1="1280" y1="360" x2="1320" y2="400" opacity="0.48"></line><line x1="1360" y1="360" x2="1320" y2="400" opacity="0.48"></line><line x1="1360" y1="360" x2="1400" y2="400" opacity="0.48"></line><line x1="1440" y1="360" x2="1400" y2="400" opacity="0.48"></line><line x1="40" y1="400" x2="0" y2="440" opacity="0.53"></line><line x1="80" y1="400" x2="40" y2="440" opacity="0.53"></line><line x1="120" y1="400" x2="80" y2="440" opacity="0.53"></line><line x1="120" y1="400" x2="160" y2="440" opacity="0.53"></line><line x1="200" y1="400" x2="160" y2="440" opacity="0.53"></line><line x1="200" y1="400" x2="240" y2="440" opacity="0.53"></line><line x1="280" y1="400" x2="240" y2="440" opacity="0.53"></line><line x1="280" y1="400" x2="320" y2="440" opacity="0.53"></line><line x1="360" y1="400" x2="320" y2="440" opacity="0.53"></line><line x1="360" y1="400" x2="400" y2="440" opacity="0.53"></line><line x1="400" y1="400" x2="440" y2="440" opacity="0.53"></line><line x1="440" y1="400" x2="480" y2="440" opacity="0.53"></line><line x1="480" y1="400" x2="520" y2="440" opacity="0.53"></line><line x1="520" y1="400" x2="560" y2="440" opacity="0.53"></line><line x1="600" y1="400" x2="560" y2="440" opacity="0.53"></line><line x1="600" y1="400" x2="640" y2="440" opacity="0.53"></line><line x1="680" y1="400" x2="640" y2="440" opacity="0.53"></line><line x1="720" y1="400" x2="680" y2="440" opacity="0.53"></line><line x1="720" y1="400" x2="760" y2="440" opacity="0.53"></line><line x1="760" y1="400" x2="800" y2="440" opacity="0.53"></line><line x1="800" y1="400" x2="840" y2="440" opacity="0.53"></line><line x1="840" y1="400" x2="880" y2="440" opacity="0.53"></line><line x1="920" y1="400" x2="880" y2="440" opacity="0.53"></line><line x1="960" y1="400" x2="920" y2="440" opacity="0.53"></line><line x1="1000" y1="400" x2="960" y2="440" opacity="0.53"></line><line x1="1000" y1="400" x2="1040" y2="440" opacity="0.53"></line><line x1="1040" y1="400" x2="1080" y2="440" opacity="0.53"></line><line x1="1120" y1="400" x2="1080" y2="440" opacity="0.53"></line><line x1="1160" y1="400" x2="1120" y2="440" opacity="0.53"></line><line x1="1160" y1="400" x2="1200" y2="440" opacity="0.53"></line><line x1="1200" y1="400" x2="1240" y2="440" opacity="0.53"></line><line x1="1280" y1="400" x2="1240" y2="440" opacity="0.53"></line><line x1="1320" y1="400" x2="1280" y2="440" opacity="0.53"></line><line x1="1360" y1="400" x2="1320" y2="440" opacity="0.53"></line><line x1="1400" y1="400" x2="1360" y2="440" opacity="0.53"></line><line x1="1400" y1="400" x2="1440" y2="440" opacity="0.53"></line><line x1="0" y1="440" x2="40" y2="480" opacity="0.57"></line><line x1="80" y1="440" x2="40" y2="480" opacity="0.57"></line><line x1="120" y1="440" x2="80" y2="480" opacity="0.57"></line><line x1="160" y1="440" x2="120" y2="480" opacity="0.57"></line><line x1="200" y1="440" x2="160" y2="480" opacity="0.57"></line><line x1="200" y1="440" x2="240" y2="480" opacity="0.57"></line><line x1="280" y1="440" x2="240" y2="480" opacity="0.57"></line><line x1="280" y1="440" x2="320" y2="480" opacity="0.57"></line><line x1="320" y1="440" x2="360" y2="480" opacity="0.57"></line><line x1="360" y1="440" x2="400" y2="480" opacity="0.57"></line><line x1="440" y1="440" x2="400" y2="480" opacity="0.57"></line><line x1="440" y1="440" x2="480" y2="480" opacity="0.57"></line><line x1="480" y1="440" x2="520" y2="480" opacity="0.57"></line><line x1="560" y1="440" x2="520" y2="480" opacity="0.57"></line><line x1="560" y1="440" x2="600" y2="480" opacity="0.57"></line><line x1="600" y1="440" x2="640" y2="480" opacity="0.57"></line><line x1="680" y1="440" x2="640" y2="480" opacity="0.57"></line><line x1="680" y1="440" x2="720" y2="480" opacity="0.57"></line><line x1="720" y1="440" x2="760" y2="480" opacity="0.57"></line><line x1="800" y1="440" x2="760" y2="480" opacity="0.57"></line><line x1="840" y1="440" x2="800" y2="480" opacity="0.57"></line><line x1="880" y1="440" x2="840" y2="480" opacity="0.57"></line><line x1="880" y1="440" x2="920" y2="480" opacity="0.57"></line><line x1="920" y1="440" x2="960" y2="480" opacity="0.57"></line><line x1="960" y1="440" x2="1000" y2="480" opacity="0.57"></line><line x1="1040" y1="440" x2="1000" y2="480" opacity="0.57"></line><line x1="1040" y1="440" x2="1080" y2="480" opacity="0.57"></line><line x1="1120" y1="440" x2="1080" y2="480" opacity="0.57"></line><line x1="1160" y1="440" x2="1120" y2="480" opacity="0.57"></line><line x1="1160" y1="440" x2="1200" y2="480" opacity="0.57"></line><line x1="1240" y1="440" x2="1200" y2="480" opacity="0.57"></line><line x1="1240" y1="440" x2="1280" y2="480" opacity="0.57"></line><line x1="1280" y1="440" x2="1320" y2="480" opacity="0.57"></line><line x1="1360" y1="440" x2="1320" y2="480" opacity="0.57"></line><line x1="1360" y1="440" x2="1400" y2="480" opacity="0.57"></line><line x1="1400" y1="440" x2="1440" y2="480" opacity="0.57"></line><line x1="0" y1="480" x2="40" y2="520" opacity="0.62"></line><line x1="40" y1="480" x2="80" y2="520" opacity="0.62"></line><line x1="120" y1="480" x2="80" y2="520" opacity="0.62"></line><line x1="120" y1="480" x2="160" y2="520" opacity="0.62"></line><line x1="200" y1="480" x2="160" y2="520" opacity="0.62"></line><line x1="240" y1="480" x2="200" y2="520" opacity="0.62"></line><line x1="280" y1="480" x2="240" y2="520" opacity="0.62"></line><line x1="320" y1="480" x2="280" y2="520" opacity="0.62"></line><line x1="360" y1="480" x2="320" y2="520" opacity="0.62"></line><line x1="400" y1="480" x2="360" y2="520" opacity="0.62"></line><line x1="400" y1="480" x2="440" y2="520" opacity="0.62"></line><line x1="440" y1="480" x2="480" y2="520" opacity="0.62"></line><line x1="480" y1="480" x2="520" y2="520" opacity="0.62"></line><line x1="520" y1="480" x2="560" y2="520" opacity="0.62"></line><line x1="560" y1="480" x2="600" y2="520" opacity="0.62"></line><line x1="600" y1="480" x2="640" y2="520" opacity="0.62"></line><line x1="680" y1="480" x2="640" y2="520" opacity="0.62"></line><line x1="720" y1="480" x2="680" y2="520" opacity="0.62"></line><line x1="720" y1="480" x2="760" y2="520" opacity="0.62"></line><line x1="760" y1="480" x2="800" y2="520" opacity="0.62"></line><line x1="800" y1="480" x2="840" y2="520" opacity="0.62"></line><line x1="880" y1="480" x2="840" y2="520" opacity="0.62"></line><line x1="880" y1="480" x2="920" y2="520" opacity="0.62"></line><line x1="920" y1="480" x2="960" y2="520" opacity="0.62"></line><line x1="1000" y1="480" x2="960" y2="520" opacity="0.62"></line><line x1="1000" y1="480" x2="1040" y2="520" opacity="0.62"></line><line x1="1080" y1="480" x2="1040" y2="520" opacity="0.62"></line><line x1="1080" y1="480" x2="1120" y2="520" opacity="0.62"></line><line x1="1160" y1="480" x2="1120" y2="520" opacity="0.62"></line><line x1="1160" y1="480" x2="1200" y2="520" opacity="0.62"></line><line x1="1240" y1="480" x2="1200" y2="520" opacity="0.62"></line><line x1="1280" y1="480" x2="1240" y2="520" opacity="0.62"></line><line x1="1280" y1="480" x2="1320" y2="520" opacity="0.62"></line><line x1="1320" y1="480" x2="1360" y2="520" opacity="0.62"></line><line x1="1360" y1="480" x2="1400" y2="520" opacity="0.62"></line><line x1="1400" y1="480" x2="1440" y2="520" opacity="0.62"></line><line x1="0" y1="520" x2="40" y2="560" opacity="0.67"></line><line x1="40" y1="520" x2="80" y2="560" opacity="0.67"></line><line x1="80" y1="520" x2="120" y2="560" opacity="0.67"></line><line x1="120" y1="520" x2="160" y2="560" opacity="0.67"></line><line x1="200" y1="520" x2="160" y2="560" opacity="0.67"></line><line x1="240" y1="520" x2="200" y2="560" opacity="0.67"></line><line x1="280" y1="520" x2="240" y2="560" opacity="0.67"></line><line x1="280" y1="520" x2="320" y2="560" opacity="0.67"></line><line x1="360" y1="520" x2="320" y2="560" opacity="0.67"></line><line x1="360" y1="520" x2="400" y2="560" opacity="0.67"></line><line x1="440" y1="520" x2="400" y2="560" opacity="0.67"></line><line x1="440" y1="520" x2="480" y2="560" opacity="0.67"></line><line x1="520" y1="520" x2="480" y2="560" opacity="0.67"></line><line x1="520" y1="520" x2="560" y2="560" opacity="0.67"></line><line x1="600" y1="520" x2="560" y2="560" opacity="0.67"></line><line x1="600" y1="520" x2="640" y2="560" opacity="0.67"></line><line x1="640" y1="520" x2="680" y2="560" opacity="0.67"></line><line x1="720" y1="520" x2="680" y2="560" opacity="0.67"></line><line x1="760" y1="520" x2="720" y2="560" opacity="0.67"></line><line x1="800" y1="520" x2="760" y2="560" opacity="0.67"></line><line x1="840" y1="520" x2="800" y2="560" opacity="0.67"></line><line x1="840" y1="520" x2="880" y2="560" opacity="0.67"></line><line x1="880" y1="520" x2="920" y2="560" opacity="0.67"></line><line x1="960" y1="520" x2="920" y2="560" opacity="0.67"></line><line x1="1000" y1="520" x2="960" y2="560" opacity="0.67"></line><line x1="1040" y1="520" x2="1000" y2="560" opacity="0.67"></line><line x1="1080" y1="520" x2="1040" y2="560" opacity="0.67"></line><line x1="1080" y1="520" x2="1120" y2="560" opacity="0.67"></line><line x1="1160" y1="520" x2="1120" y2="560" opacity="0.67"></line><line x1="1160" y1="520" x2="1200" y2="560" opacity="0.67"></line><line x1="1200" y1="520" x2="1240" y2="560" opacity="0.67"></line><line x1="1280" y1="520" x2="1240" y2="560" opacity="0.67"></line><line x1="1280" y1="520" x2="1320" y2="560" opacity="0.67"></line><line x1="1360" y1="520" x2="1320" y2="560" opacity="0.67"></line><line x1="1360" y1="520" x2="1400" y2="560" opacity="0.67"></line><line x1="1440" y1="520" x2="1400" y2="560" opacity="0.67"></line><line x1="0" y1="560" x2="40" y2="600" opacity="0.71"></line><line x1="40" y1="560" x2="80" y2="600" opacity="0.71"></line><line x1="80" y1="560" x2="120" y2="600" opacity="0.71"></line><line x1="120" y1="560" x2="160" y2="600" opacity="0.71"></line><line x1="160" y1="560" x2="200" y2="600" opacity="0.71"></line><line x1="200" y1="560" x2="240" y2="600" opacity="0.71"></line><line x1="240" y1="560" x2="280" y2="600" opacity="0.71"></line><line x1="320" y1="560" x2="280" y2="600" opacity="0.71"></line><line x1="360" y1="560" x2="320" y2="600" opacity="0.71"></line><line x1="360" y1="560" x2="400" y2="600" opacity="0.71"></line><line x1="440" y1="560" x2="400" y2="600" opacity="0.71"></line><line x1="440" y1="560" x2="480" y2="600" opacity="0.71"></line><line x1="520" y1="560" x2="480" y2="600" opacity="0.71"></line><line x1="520" y1="560" x2="560" y2="600" opacity="0.71"></line><line x1="560" y1="560" x2="600" y2="600" opacity="0.71"></line><line x1="600" y1="560" x2="640" y2="600" opacity="0.71"></line><line x1="640" y1="560" x2="680" y2="600" opacity="0.71"></line><line x1="680" y1="560" x2="720" y2="600" opacity="0.71"></line><line x1="760" y1="560" x2="720" y2="600" opacity="0.71"></line><line x1="800" y1="560" x2="760" y2="600" opacity="0.71"></line><line x1="840" y1="560" x2="800" y2="600" opacity="0.71"></line><line x1="880" y1="560" x2="840" y2="600" opacity="0.71"></line><line x1="880" y1="560" x2="920" y2="600" opacity="0.71"></line><line x1="920" y1="560" x2="960" y2="600" opacity="0.71"></line><line x1="960" y1="560" x2="1000" y2="600" opacity="0.71"></line><line x1="1000" y1="560" x2="1040" y2="600" opacity="0.71"></line><line x1="1080" y1="560" x2="1040" y2="600" opacity="0.71"></line><line x1="1080" y1="560" x2="1120" y2="600" opacity="0.71"></line><line x1="1120" y1="560" x2="1160" y2="600" opacity="0.71"></line><line x1="1160" y1="560" x2="1200" y2="600" opacity="0.71"></line><line x1="1200" y1="560" x2="1240" y2="600" opacity="0.71"></line><line x1="1240" y1="560" x2="1280" y2="600" opacity="0.71"></line><line x1="1280" y1="560" x2="1320" y2="600" opacity="0.71"></line><line x1="1360" y1="560" x2="1320" y2="600" opacity="0.71"></line><line x1="1360" y1="560" x2="1400" y2="600" opacity="0.71"></line><line x1="1400" y1="560" x2="1440" y2="600" opacity="0.71"></line><line x1="0" y1="600" x2="40" y2="640" opacity="0.76"></line><line x1="80" y1="600" x2="40" y2="640" opacity="0.76"></line><line x1="120" y1="600" x2="80" y2="640" opacity="0.76"></line><line x1="120" y1="600" x2="160" y2="640" opacity="0.76"></line><line x1="160" y1="600" x2="200" y2="640" opacity="0.76"></line><line x1="240" y1="600" x2="200" y2="640" opacity="0.76"></line><line x1="280" y1="600" x2="240" y2="640" opacity="0.76"></line><line x1="280" y1="600" x2="320" y2="640" opacity="0.76"></line><line x1="360" y1="600" x2="320" y2="640" opacity="0.76"></line><line x1="360" y1="600" x2="400" y2="640" opacity="0.76"></line><line x1="440" y1="600" x2="400" y2="640" opacity="0.76"></line><line x1="440" y1="600" x2="480" y2="640" opacity="0.76"></line><line x1="480" y1="600" x2="520" y2="640" opacity="0.76"></line><line x1="520" y1="600" x2="560" y2="640" opacity="0.76"></line><line x1="560" y1="600" x2="600" y2="640" opacity="0.76"></line><line x1="640" y1="600" x2="600" y2="640" opacity="0.76"></line><line x1="680" y1="600" x2="640" y2="640" opacity="0.76"></line><line x1="720" y1="600" x2="680" y2="640" opacity="0.76"></line><line x1="720" y1="600" x2="760" y2="640" opacity="0.76"></line><line x1="760" y1="600" x2="800" y2="640" opacity="0.76"></line><line x1="840" y1="600" x2="800" y2="640" opacity="0.76"></line><line x1="880" y1="600" x2="840" y2="640" opacity="0.76"></line><line x1="880" y1="600" x2="920" y2="640" opacity="0.76"></line><line x1="960" y1="600" x2="920" y2="640" opacity="0.76"></line><line x1="960" y1="600" x2="1000" y2="640" opacity="0.76"></line><line x1="1000" y1="600" x2="1040" y2="640" opacity="0.76"></line><line x1="1040" y1="600" x2="1080" y2="640" opacity="0.76"></line><line x1="1080" y1="600" x2="1120" y2="640" opacity="0.76"></line><line x1="1120" y1="600" x2="1160" y2="640" opacity="0.76"></line><line x1="1200" y1="600" x2="1160" y2="640" opacity="0.76"></line><line x1="1240" y1="600" x2="1200" y2="640" opacity="0.76"></line><line x1="1240" y1="600" x2="1280" y2="640" opacity="0.76"></line><line x1="1280" y1="600" x2="1320" y2="640" opacity="0.76"></line><line x1="1320" y1="600" x2="1360" y2="640" opacity="0.76"></line><line x1="1400" y1="600" x2="1360" y2="640" opacity="0.76"></line><line x1="1440" y1="600" x2="1400" y2="640" opacity="0.76"></line><line x1="40" y1="640" x2="0" y2="680" opacity="0.81"></line><line x1="40" y1="640" x2="80" y2="680" opacity="0.81"></line><line x1="80" y1="640" x2="120" y2="680" opacity="0.81"></line><line x1="160" y1="640" x2="120" y2="680" opacity="0.81"></line><line x1="200" y1="640" x2="160" y2="680" opacity="0.81"></line><line x1="240" y1="640" x2="200" y2="680" opacity="0.81"></line><line x1="240" y1="640" x2="280" y2="680" opacity="0.81"></line><line x1="320" y1="640" x2="280" y2="680" opacity="0.81"></line><line x1="320" y1="640" x2="360" y2="680" opacity="0.81"></line><line x1="400" y1="640" x2="360" y2="680" opacity="0.81"></line><line x1="400" y1="640" x2="440" y2="680" opacity="0.81"></line><line x1="440" y1="640" x2="480" y2="680" opacity="0.81"></line><line x1="480" y1="640" x2="520" y2="680" opacity="0.81"></line><line x1="520" y1="640" x2="560" y2="680" opacity="0.81"></line><line x1="560" y1="640" x2="600" y2="680" opacity="0.81"></line><line x1="640" y1="640" x2="600" y2="680" opacity="0.81"></line><line x1="640" y1="640" x2="680" y2="680" opacity="0.81"></line><line x1="680" y1="640" x2="720" y2="680" opacity="0.81"></line><line x1="720" y1="640" x2="760" y2="680" opacity="0.81"></line><line x1="800" y1="640" x2="760" y2="680" opacity="0.81"></line><line x1="800" y1="640" x2="840" y2="680" opacity="0.81"></line><line x1="840" y1="640" x2="880" y2="680" opacity="0.81"></line><line x1="880" y1="640" x2="920" y2="680" opacity="0.81"></line><line x1="960" y1="640" x2="920" y2="680" opacity="0.81"></line><line x1="960" y1="640" x2="1000" y2="680" opacity="0.81"></line><line x1="1000" y1="640" x2="1040" y2="680" opacity="0.81"></line><line x1="1040" y1="640" x2="1080" y2="680" opacity="0.81"></line><line x1="1080" y1="640" x2="1120" y2="680" opacity="0.81"></line><line x1="1160" y1="640" x2="1120" y2="680" opacity="0.81"></line><line x1="1160" y1="640" x2="1200" y2="680" opacity="0.81"></line><line x1="1240" y1="640" x2="1200" y2="680" opacity="0.81"></line><line x1="1240" y1="640" x2="1280" y2="680" opacity="0.81"></line><line x1="1280" y1="640" x2="1320" y2="680" opacity="0.81"></line><line x1="1320" y1="640" x2="1360" y2="680" opacity="0.81"></line><line x1="1360" y1="640" x2="1400" y2="680" opacity="0.81"></line><line x1="1400" y1="640" x2="1440" y2="680" opacity="0.81"></line><line x1="0" y1="680" x2="40" y2="720" opacity="0.86"></line><line x1="40" y1="680" x2="80" y2="720" opacity="0.86"></line><line x1="80" y1="680" x2="120" y2="720" opacity="0.86"></line><line x1="120" y1="680" x2="160" y2="720" opacity="0.86"></line><line x1="200" y1="680" x2="160" y2="720" opacity="0.86"></line><line x1="200" y1="680" x2="240" y2="720" opacity="0.86"></line><line x1="280" y1="680" x2="240" y2="720" opacity="0.86"></line><line x1="320" y1="680" x2="280" y2="720" opacity="0.86"></line><line x1="360" y1="680" x2="320" y2="720" opacity="0.86"></line><line x1="400" y1="680" x2="360" y2="720" opacity="0.86"></line><line x1="400" y1="680" x2="440" y2="720" opacity="0.86"></line><line x1="440" y1="680" x2="480" y2="720" opacity="0.86"></line><line x1="520" y1="680" x2="480" y2="720" opacity="0.86"></line><line x1="560" y1="680" x2="520" y2="720" opacity="0.86"></line><line x1="600" y1="680" x2="560" y2="720" opacity="0.86"></line><line x1="640" y1="680" x2="600" y2="720" opacity="0.86"></line><line x1="640" y1="680" x2="680" y2="720" opacity="0.86"></line><line x1="720" y1="680" x2="680" y2="720" opacity="0.86"></line><line x1="720" y1="680" x2="760" y2="720" opacity="0.86"></line><line x1="800" y1="680" x2="760" y2="720" opacity="0.86"></line><line x1="800" y1="680" x2="840" y2="720" opacity="0.86"></line><line x1="880" y1="680" x2="840" y2="720" opacity="0.86"></line><line x1="880" y1="680" x2="920" y2="720" opacity="0.86"></line><line x1="920" y1="680" x2="960" y2="720" opacity="0.86"></line><line x1="960" y1="680" x2="1000" y2="720" opacity="0.86"></line><line x1="1040" y1="680" x2="1000" y2="720" opacity="0.86"></line><line x1="1040" y1="680" x2="1080" y2="720" opacity="0.86"></line><line x1="1120" y1="680" x2="1080" y2="720" opacity="0.86"></line><line x1="1120" y1="680" x2="1160" y2="720" opacity="0.86"></line><line x1="1200" y1="680" x2="1160" y2="720" opacity="0.86"></line><line x1="1200" y1="680" x2="1240" y2="720" opacity="0.86"></line><line x1="1280" y1="680" x2="1240" y2="720" opacity="0.86"></line><line x1="1320" y1="680" x2="1280" y2="720" opacity="0.86"></line><line x1="1320" y1="680" x2="1360" y2="720" opacity="0.86"></line><line x1="1400" y1="680" x2="1360" y2="720" opacity="0.86"></line><line x1="1440" y1="680" x2="1400" y2="720" opacity="0.86"></line><line x1="40" y1="720" x2="0" y2="760" opacity="0.91"></line><line x1="80" y1="720" x2="40" y2="760" opacity="0.91"></line><line x1="120" y1="720" x2="80" y2="760" opacity="0.91"></line><line x1="160" y1="720" x2="120" y2="760" opacity="0.91"></line><line x1="160" y1="720" x2="200" y2="760" opacity="0.91"></line><line x1="200" y1="720" x2="240" y2="760" opacity="0.91"></line><line x1="280" y1="720" x2="240" y2="760" opacity="0.91"></line><line x1="320" y1="720" x2="280" y2="760" opacity="0.91"></line><line x1="320" y1="720" x2="360" y2="760" opacity="0.91"></line><line x1="360" y1="720" x2="400" y2="760" opacity="0.91"></line><line x1="440" y1="720" x2="400" y2="760" opacity="0.91"></line><line x1="480" y1="720" x2="440" y2="760" opacity="0.91"></line><line x1="520" y1="720" x2="480" y2="760" opacity="0.91"></line><line x1="560" y1="720" x2="520" y2="760" opacity="0.91"></line><line x1="560" y1="720" x2="600" y2="760" opacity="0.91"></line><line x1="600" y1="720" x2="640" y2="760" opacity="0.91"></line><line x1="680" y1="720" x2="640" y2="760" opacity="0.91"></line><line x1="720" y1="720" x2="680" y2="760" opacity="0.91"></line><line x1="720" y1="720" x2="760" y2="760" opacity="0.91"></line><line x1="760" y1="720" x2="800" y2="760" opacity="0.91"></line><line x1="800" y1="720" x2="840" y2="760" opacity="0.91"></line><line x1="880" y1="720" x2="840" y2="760" opacity="0.91"></line><line x1="920" y1="720" x2="880" y2="760" opacity="0.91"></line><line x1="960" y1="720" x2="920" y2="760" opacity="0.91"></line><line x1="960" y1="720" x2="1000" y2="760" opacity="0.91"></line><line x1="1000" y1="720" x2="1040" y2="760" opacity="0.91"></line><line x1="1040" y1="720" x2="1080" y2="760" opacity="0.91"></line><line x1="1080" y1="720" x2="1120" y2="760" opacity="0.91"></line><line x1="1160" y1="720" x2="1120" y2="760" opacity="0.91"></line><line x1="1200" y1="720" x2="1160" y2="760" opacity="0.91"></line><line x1="1200" y1="720" x2="1240" y2="760" opacity="0.91"></line><line x1="1280" y1="720" x2="1240" y2="760" opacity="0.91"></line><line x1="1280" y1="720" x2="1320" y2="760" opacity="0.91"></line><line x1="1320" y1="720" x2="1360" y2="760" opacity="0.91"></line><line x1="1360" y1="720" x2="1400" y2="760" opacity="0.91"></line><line x1="1440" y1="720" x2="1400" y2="760" opacity="0.91"></line><line x1="40" y1="760" x2="0" y2="800" opacity="0.95"></line><line x1="80" y1="760" x2="40" y2="800" opacity="0.95"></line><line x1="120" y1="760" x2="80" y2="800" opacity="0.95"></line><line x1="120" y1="760" x2="160" y2="800" opacity="0.95"></line><line x1="200" y1="760" x2="160" y2="800" opacity="0.95"></line><line x1="200" y1="760" x2="240" y2="800" opacity="0.95"></line><line x1="240" y1="760" x2="280" y2="800" opacity="0.95"></line><line x1="320" y1="760" x2="280" y2="800" opacity="0.95"></line><line x1="360" y1="760" x2="320" y2="800" opacity="0.95"></line><line x1="400" y1="760" x2="360" y2="800" opacity="0.95"></line><line x1="400" y1="760" x2="440" y2="800" opacity="0.95"></line><line x1="480" y1="760" x2="440" y2="800" opacity="0.95"></line><line x1="520" y1="760" x2="480" y2="800" opacity="0.95"></line><line x1="520" y1="760" x2="560" y2="800" opacity="0.95"></line><line x1="600" y1="760" x2="560" y2="800" opacity="0.95"></line><line x1="640" y1="760" x2="600" y2="800" opacity="0.95"></line><line x1="680" y1="760" x2="640" y2="800" opacity="0.95"></line><line x1="680" y1="760" x2="720" y2="800" opacity="0.95"></line><line x1="720" y1="760" x2="760" y2="800" opacity="0.95"></line><line x1="800" y1="760" x2="760" y2="800" opacity="0.95"></line><line x1="800" y1="760" x2="840" y2="800" opacity="0.95"></line><line x1="880" y1="760" x2="840" y2="800" opacity="0.95"></line><line x1="920" y1="760" x2="880" y2="800" opacity="0.95"></line><line x1="920" y1="760" x2="960" y2="800" opacity="0.95"></line><line x1="1000" y1="760" x2="960" y2="800" opacity="0.95"></line><line x1="1000" y1="760" x2="1040" y2="800" opacity="0.95"></line><line x1="1040" y1="760" x2="1080" y2="800" opacity="0.95"></line><line x1="1080" y1="760" x2="1120" y2="800" opacity="0.95"></line><line x1="1120" y1="760" x2="1160" y2="800" opacity="0.95"></line><line x1="1160" y1="760" x2="1200" y2="800" opacity="0.95"></line><line x1="1200" y1="760" x2="1240" y2="800" opacity="0.95"></line><line x1="1280" y1="760" x2="1240" y2="800" opacity="0.95"></line><line x1="1320" y1="760" x2="1280" y2="800" opacity="0.95"></line><line x1="1320" y1="760" x2="1360" y2="800" opacity="0.95"></line><line x1="1400" y1="760" x2="1360" y2="800" opacity="0.95"></line><line x1="1440" y1="760" x2="1400" y2="800" opacity="0.95"></line><line x1="40" y1="800" x2="0" y2="840" opacity="1.00"></line><line x1="40" y1="800" x2="80" y2="840" opacity="1.00"></line><line x1="120" y1="800" x2="80" y2="840" opacity="1.00"></line><line x1="160" y1="800" x2="120" y2="840" opacity="1.00"></line><line x1="200" y1="800" x2="160" y2="840" opacity="1.00"></line><line x1="240" y1="800" x2="200" y2="840" opacity="1.00"></line><line x1="240" y1="800" x2="280" y2="840" opacity="1.00"></line><line x1="320" y1="800" x2="280" y2="840" opacity="1.00"></line><line x1="320" y1="800" x2="360" y2="840" opacity="1.00"></line><line x1="360" y1="800" x2="400" y2="840" opacity="1.00"></line><line x1="400" y1="800" x2="440" y2="840" opacity="1.00"></line><line x1="440" y1="800" x2="480" y2="840" opacity="1.00"></line><line x1="480" y1="800" x2="520" y2="840" opacity="1.00"></line><line x1="520" y1="800" x2="560" y2="840" opacity="1.00"></line><line x1="560" y1="800" x2="600" y2="840" opacity="1.00"></line><line x1="640" y1="800" x2="600" y2="840" opacity="1.00"></line><line x1="640" y1="800" x2="680" y2="840" opacity="1.00"></line><line x1="720" y1="800" x2="680" y2="840" opacity="1.00"></line><line x1="720" y1="800" x2="760" y2="840" opacity="1.00"></line><line x1="800" y1="800" x2="760" y2="840" opacity="1.00"></line><line x1="800" y1="800" x2="840" y2="840" opacity="1.00"></line><line x1="880" y1="800" x2="840" y2="840" opacity="1.00"></line><line x1="920" y1="800" x2="880" y2="840" opacity="1.00"></line><line x1="920" y1="800" x2="960" y2="840" opacity="1.00"></line><line x1="1000" y1="800" x2="960" y2="840" opacity="1.00"></line><line x1="1000" y1="800" x2="1040" y2="840" opacity="1.00"></line><line x1="1040" y1="800" x2="1080" y2="840" opacity="1.00"></line><line x1="1120" y1="800" x2="1080" y2="840" opacity="1.00"></line><line x1="1120" y1="800" x2="1160" y2="840" opacity="1.00"></line><line x1="1200" y1="800" x2="1160" y2="840" opacity="1.00"></line><line x1="1240" y1="800" x2="1200" y2="840" opacity="1.00"></line><line x1="1280" y1="800" x2="1240" y2="840" opacity="1.00"></line><line x1="1320" y1="800" x2="1280" y2="840" opacity="1.00"></line><line x1="1320" y1="800" x2="1360" y2="840" opacity="1.00"></line><line x1="1400" y1="800" x2="1360" y2="840" opacity="1.00"></line><line x1="1400" y1="800" x2="1440" y2="840" opacity="1.00"></line></g></svg>